<?xml version="1.0" encoding="utf-8"?>
<!-- Generator: Adobe Illustrator 25.0.1, SVG Export Plug-In . SVG Version: 6.00 Build 0)  -->
<svg version="1.1" id="Capa_1" xmlns="http://www.w3.org/2000/svg" xmlns:xlink="http://www.w3.org/1999/xlink" x="0px" y="0px"
	 viewBox="0 0 395.2 181.5" style="enable-background:new 0 0 395.2 181.5;" xml:space="preserve">
<style type="text/css">
	.st0{fill-rule:evenodd;clip-rule:evenodd;}
</style>
<g id="Capa_2_1_">
	<g id="Capa_1-2">
		<path class="st0" d="M111.9,0.4c9.6-0.5,19.3-0.5,28.9,0C203.5,6.1,255.1,25.8,262.4,85c-3-2.7-3.3-3.5-7-6.4
			c-14.2-12.4-31.4-27.9-60.5-25.2c-6.8,0.6-14.6,3.3-16.6,8.6c-3.4,8.9,3.2,19.1,7,23.6c18,21.3,60.1,31.4,95.3,34.3
			c6.4,0.5,12.9,0.5,19.3,0h7c-8.6,3-19.6,3.6-30.5,4.3c-7,0-12.6,0.2-20.9,0c-43.8-2.4-77.6-14.9-103.4-35.3
			c-3.1-2.6-6-5.4-8.6-8.6c-3.9-6-7.8-11.9-7.5-20.3c0.7-18.2,21.5-23.9,40.2-25.2c4.1,0,6.6-0.3,12.3,0c9.3,0.3,17.2,2.1,25.2,3.7
			C188.9,18.4,151,6.9,105,6.3c-3-0.3-6.1-0.3-9.1,0C84.3,5.9,74.3,7.2,64.3,8.4C77.8,3.4,95.2,2.2,111.9,0.4z"/>
		<path class="st0" d="M65.9,152.5c-1.2-12.8-36.9-7.3-50.9-8.6c-4.9,12.1-9.6,24.3-15,35.9v0.5h19.3c2.6-5.6,4.8-11.7,7.5-17.1
			c5.6,2.4,9.2,15.2,16.1,17.1c5.4,1.5,11.7-1.1,19.3,0c-2.8-4-10.9-10.1-12.8-15C55.2,161.9,66.7,161.3,65.9,152.5z M33.7,160.5
			c-1.9,0.4-3.9,0.4-5.9,0c1-3.5,2.9-6,3.8-9.6c6-0.9,14.7-1.7,15,3.2C46.8,158.4,39.3,160.1,33.7,160.5L33.7,160.5z M80.9,143.9
			c-5.6,11.7-10.4,24.2-15.5,36.4h19.3c4.9-12.2,10-24.3,15-36.4H80.9z M109.8,143.9c-6.1,11.5-11.1,24.3-16.6,36.4h20.3
			c2-4.4,3.4-9.4,5.9-13.4c15.5,0.5,37.1-1.2,36.4-13.9C155.1,138.8,125.4,145.6,109.8,143.9L109.8,143.9z M128,160.5
			c-1.8,0.1-3.6,0-5.4-0.2c0.2,0-0.6-0.3-0.5-0.3c1.3-3.3,2.3-7,4.3-9.6c5.7-1.1,13.8-0.9,14.5,3.2
			C141.6,158.2,133.9,160.4,128,160.5z M228.1,154.6c0.6-2.9,2.6-4.6,3.2-7.5c-19.4-8.8-59.7,1.6-64.3,14.5
			c-5.5,15.7,16.8,20.6,31.1,19.8c9.9-0.5,16.7-3.9,24.1-5.9c-0.1-2.9,0.6-5.1,1.1-7.5c-6.1,4.2-35.5,13.5-37,0
			C184.6,152.3,216.1,143.6,228.1,154.6L228.1,154.6z M285.4,144.5c-5.4,12.1-6.3,28.7-24.1,28.4c-1.8,0-3.9,0-5.4,0
			c-14.4-0.8,4.5-22.1,3.8-28.4H241c-0.9,9.8-12.9,18-9.6,28.4c1.8,5.6,12.4,8.1,19.3,8.6c12.9,0.8,27.6-3.8,33.2-11.2
			c5.9-7.8,5.7-17.2,10.7-25.7L285.4,144.5z M334.2,144.5c-8.9-0.1-21.5,0.1-30.5,0c-0.7,0-1.2-0.2-1.6,0.5
			c-4.5,12.3-9.9,23.6-14.5,35.9h19.3c0.2-0.3,0.4-0.7,0.5-1.1c1.8-5.7,4.5-10.5,6.4-16.1c5.4,5,10.4,10.4,15,16.1
			c4.5,2.3,13.1,0.5,19.3,1.1c-4.6-5.6-11.4-8.9-15.5-15c5.9-3,16-4,16.6-11.2C349.7,147.8,342.1,145.5,334.2,144.5L334.2,144.5z
			 M322.1,161.5c-1,0.3-5.7,0.5-6.6-0.4c1-3.1,2.2-6.2,3.8-9.1c1-2.1,8.1-1.5,10-1.3c2.9,0.4,5.1,2,4.9,3.5
			C333.9,159.3,327.9,160.9,322.1,161.5L322.1,161.5z M373.1,175l0.1-0.5c3.1-10.3,9.5-20.2,11.2-30c-4-0.1-11.6,0.2-16.1,0
			c-1.2-0.3-2.6,0.3-3.1,1.5c-4.8,11.7-9.5,22-13.5,34.4c13.7,0.9,27.5,0.9,41.2,0c0.6-1.7,2-4.3,2.1-4.8V175H373.1z"/>
	</g>
</g>
</svg>
